<?xml version="1.0" encoding="UTF-8" standalone="no"?>
<!-- Created with Inkscape (http://www.inkscape.org/) -->

<svg
   xmlns:dc="http://purl.org/dc/elements/1.1/"
   xmlns:cc="http://creativecommons.org/ns#"
   xmlns:rdf="http://www.w3.org/1999/02/22-rdf-syntax-ns#"
   xmlns:svg="http://www.w3.org/2000/svg"
   xmlns="http://www.w3.org/2000/svg"
   xmlns:xlink="http://www.w3.org/1999/xlink"
   xmlns:sodipodi="http://sodipodi.sourceforge.net/DTD/sodipodi-0.dtd"
   xmlns:inkscape="http://www.inkscape.org/namespaces/inkscape"
   version="1.1"
   id="svg4596"
   width="16"
   height="9"
   viewBox="0 0 16 9"
   sodipodi:docname="coverimage.svg"
   inkscape:version="0.92.2 2405546, 2018-03-11">
  <metadata
     id="metadata4602">
    <rdf:RDF>
      <cc:Work
         rdf:about="">
        <dc:format>image/svg+xml</dc:format>
        <dc:type
           rdf:resource="http://purl.org/dc/dcmitype/StillImage" />
        <dc:title></dc:title>
      </cc:Work>
    </rdf:RDF>
  </metadata>
  <defs
     id="defs4600">
    <linearGradient
       inkscape:collect="always"
       id="linearGradient4618">
      <stop
         style="stop-color:#ff6400;stop-opacity:1"
         offset="0"
         id="stop4614" />
      <stop
         style="stop-color:#ffc800;stop-opacity:1"
         offset="1"
         id="stop4616" />
    </linearGradient>
    <linearGradient
       inkscape:collect="always"
       xlink:href="#linearGradient4618"
       id="linearGradient4620"
       x1="0"
       y1="9"
       x2="16"
       y2="1.68e-06"
       gradientUnits="userSpaceOnUse" />
  </defs>
  <sodipodi:namedview
     pagecolor="#ffffff"
     bordercolor="#666666"
     borderopacity="1"
     objecttolerance="10"
     gridtolerance="10"
     guidetolerance="10"
     inkscape:pageopacity="0"
     inkscape:pageshadow="2"
     inkscape:window-width="1280"
     inkscape:window-height="742"
     id="namedview4598"
     showgrid="false"
     inkscape:zoom="22.627417"
     inkscape:cx="6.3535674"
     inkscape:cy="-0.6821034"
     inkscape:window-x="1920"
     inkscape:window-y="304"
     inkscape:window-maximized="1"
     inkscape:current-layer="svg4596" />
  <path
     inkscape:connector-curvature="0"
     id="path4610"
     d="m 0,4.4999997 v -4.5 H 7.9999996 16 v 4.5 V 9 H 7.9999996 0 Z"
     style="fill:#fefcfb;stroke-width:0.003125" />
  <path
     inkscape:connector-curvature="0"
     id="path4608"
     d="m 7.9359e-4,8.6154392 7.935e-4,-0.384563 0.36405979,-0.210212 c 0.20023291,-0.115616 0.77890042,-0.449662 1.28592792,-0.742323 0.5070276,-0.292662 0.9331181,-0.539657 0.946868,-0.54888 0.088988,-0.05968 0.1576769,-0.150489 0.1924014,-0.254347 0.040273,-0.120454 0.03218,-0.256497 -0.022037,-0.370425 C 2.7484965,6.0620102 2.2468159,5.194276 2.2217154,5.1584097 2.1961871,5.1219322 2.144317,5.0701497 2.1061602,5.0430497 2.0539216,5.0059482 1.9868955,4.9764069 1.9240717,4.9627953 1.8133347,4.9388032 1.6982274,4.9525813 1.5995532,5.0016397 1.5846913,5.0090297 1.5171918,5.0470327 1.4495543,5.0860927 0.79228201,5.4656632 0.03246086,5.9042152 0.01799327,5.9123592 L 2.44e-5,5.9224692 V 5.4431612 4.9638494 L 0.40549039,4.7297641 C 2.0295718,3.7921425 3.1599199,3.13965 3.5765605,2.8992665 3.8446835,2.7445712 4.0774162,2.6091731 4.0937442,2.5983817 4.2035328,2.5258217 4.2768847,2.4175341 4.3068351,2.2838018 c 0.00635,-0.028347 0.00722,-0.040534 0.00722,-0.1009874 0,-0.055212 -0.00114,-0.07398 -0.00578,-0.095312 C 4.2659644,1.8930764 4.1283583,1.7475475 3.9406203,1.6986886 3.8920497,1.6860486 3.8643549,1.6834046 3.800482,1.6853136 3.7227835,1.6876336 3.6735823,1.6989446 3.6078103,1.7296026 3.5923414,1.7368126 3.4615614,1.8109476 3.3171874,1.8943462 3.061446,2.0420772 2.5952401,2.3112673 0.85314326,3.3170996 0.38650613,3.5865215 0.00365737,3.8075849 0.00236838,3.8083515 0.00107838,3.8091184 2.838e-5,3.2819377 2.838e-5,2.636839 V 1.4639324 L 0.22267925,1.3353948 C 0.34513923,1.2646991 0.74556596,1.0335389 1.1125163,0.82170548 1.4794667,0.60987208 1.9498368,0.33832968 2.1577831,0.21827788 L 2.5358673,1.88e-6 h 2.096741 c 1.1744047,0 2.0954359,0.00119 2.0937729,0.00269 -0.0016,0.00148 -0.2947638,0.1710739 -0.6514021,0.3768715 -0.3566374,0.2057977 -0.6596821,0.3816964 -0.673432,0.390886 -0.05246,0.035061 -0.097749,0.080804 -0.134525,0.1358862 -0.1667438,0.24971342 -0.07566,0.58948612 0.1942505,0.72460852 0.136124,0.068147 0.2960618,0.06954 0.4340208,0.00378 0.02515,-0.011986 0.9856117,-0.5653503 2.6700341,-1.53831782 l 0.1669278,-0.096421 0.7484984,7.877e-4 0.7484993,7.876e-4 -0.7763651,0.4482616 C 8.6065372,0.9384963 7.9797809,1.3003782 6.9359107,1.9031015 6.5629444,2.1184493 5.9716208,2.4598652 5.6218574,2.6618035 5.272095,2.8637418 4.9744992,3.0371822 4.9605343,3.0472265 4.8006036,3.1622582 4.7235848,3.3660107 4.7669411,3.5593769 c 0.00763,0.034037 0.024942,0.083863 0.038542,0.1109375 0.014894,0.029651 0.5201358,0.9031869 0.5368157,0.928125 0.07048,0.1053737 0.1806627,0.1791328 0.3112977,0.2083866 0.02845,0.00637 0.04057,0.00724 0.1010732,0.00723 0.05521,0 0.07398,-0.00114 0.095309,-0.00578 C 5.8885184,4.799896 5.9318681,4.78553 5.9640399,4.770488 5.9795098,4.763258 6.22068,4.6253997 6.4999739,4.4641397 7.1714269,4.0764541 8.3181404,3.4144294 8.9358938,3.0578268 9.2091728,2.9000743 9.5185455,2.7214797 9.6233887,2.6609499 9.9838299,2.4528533 11.636091,1.4989965 11.857747,1.3710456 11.979777,1.3006036 12.08979,1.235956 12.10222,1.2273842 c 0.103471,-0.071355 0.178431,-0.1840591 0.204066,-0.30681982 0.02309,-0.1105868 0.0086,-0.2243356 -0.04119,-0.3243871 -0.0066,-0.013275 -0.08532,-0.1510593 -0.174903,-0.3061864 -0.08958,-0.1551272 -0.163564,-0.2838358 -0.164402,-0.2860192 -0.0012,-0.00321 0.389933,-0.00397 2.036343,-0.00397 H 16 l -8.28e-4,0.091406 -8.28e-4,0.091406 -0.02881,0.00203 c -0.05767,0.00406 -0.120252,0.021596 -0.175871,0.049284 -0.01633,0.00813 -0.392497,0.2243452 -0.835931,0.4804822 -0.887165,0.51244182 -1.696477,0.97976752 -2.807797,1.62132042 -0.401325,0.2316805 -0.739886,0.428244 -0.752356,0.4368078 -0.102965,0.070708 -0.178393,0.1841152 -0.203992,0.3067031 -0.02428,0.116255 -0.0068,0.2364678 0.04934,0.3401047 0.07462,0.1376637 0.202909,0.2296703 0.358576,0.2571666 0.04245,0.0075 0.120108,0.00749 0.162499,0 0.04728,-0.00837 0.0897,-0.021956 0.131249,-0.042033 0.02063,-0.00997 0.455855,-0.2596853 0.967179,-0.5549308 0.907475,-0.5239876 2.254865,-1.3018633 2.840604,-1.6399383 0.160702,-0.092753 0.29324,-0.1692658 0.294529,-0.1700278 0.0013,-7.621e-4 0.0023,0.5737066 0.0023,1.2765969 v 1.2779826 l -0.135155,0.078049 c -0.133971,0.077365 -0.572175,0.3303894 -1.799206,1.0388841 -0.349763,0.201955 -0.859524,0.4962528 -1.132803,0.6539958 -0.27328,0.157742 -0.508825,0.294525 -0.523434,0.303962 -0.189282,0.122271 -0.271983,0.358372 -0.201131,0.5742 0.0045,0.01375 0.01493,0.03936 0.02315,0.05692 0.06584,0.140645 0.19424,0.242359 0.348006,0.275674 0.06301,0.01365 0.138769,0.01426 0.201021,0.0016 0.03425,-0.007 0.09244,-0.0268 0.121654,-0.04149 0.01365,-0.0069 0.442392,-0.253559 0.952767,-0.548216 1.908265,-1.101725 2.142232,-1.2367013 2.143664,-1.2367013 8.07e-4,0 0.0015,0.3625153 0.0015,0.8055883 V 6.592417 L 15.788178,6.714655 C 15.671734,6.781885 15.354275,6.965188 15.082715,7.121994 14.571007,7.417466 12.213188,8.778862 11.968949,8.91987 L 11.830162,9 10.483335,8.999215 9.1365073,8.99843 9.3634146,8.867469 C 9.4882137,8.795439 9.6026548,8.727251 9.6177287,8.715937 9.7863615,8.589375 9.8570269,8.367532 9.7930264,8.165618 9.7017471,7.877651 9.3760725,7.735574 9.1046345,7.865306 9.0874447,7.873506 8.8420585,8.013855 8.5593256,8.177161 8.2765937,8.340466 7.8403219,8.592411 7.5898328,8.737037 L 7.1343992,8.999993 H 3.5672047 0 Z m 2.21858941,0.06581 c 0.063169,-0.0052 0.1310085,-0.02352 0.1819482,-0.04904 0.012162,-0.0061 0.067815,-0.03744 0.1236746,-0.06967 0.055859,-0.03222 0.560699,-0.323637 1.1218667,-0.647585 0.5611677,-0.323948 1.3170218,-0.760283 1.6796751,-0.969632 0.3626533,-0.20935 0.8358528,-0.482515 1.0515542,-0.607034 0.2157024,-0.124519 0.403435,-0.233947 0.4171849,-0.243174 0.1059902,-0.07113 0.1797437,-0.182273 0.2082705,-0.313858 0.0061,-0.02829 0.0071,-0.04185 0.0071,-0.09844 0,-0.05605 -10e-4,-0.07025 -0.0069,-0.09734 -0.01417,-0.06509 -0.04121,-0.128591 -0.079059,-0.185607 -0.02723,-0.04103 -0.090989,-0.104455 -0.132782,-0.132094 -0.1479769,-0.097855 -0.3325095,-0.1116746 -0.4903803,-0.036725 -0.01719,0.00816 -0.2309363,0.1301599 -0.4749965,0.2711109 -0.2440612,0.140951 -1.2213973,0.705292 -2.171859,1.254091 -0.9504616,0.548798 -1.7337371,1.001343 -1.740612,1.005653 -0.022022,0.01381 -0.05877,0.04303 -0.079859,0.06351 -0.069663,0.06765 -0.1157227,0.150099 -0.1394282,0.249581 -0.011574,0.04857 -0.013729,0.136189 -0.00466,0.189322 0.015439,0.09042 0.052807,0.17076 0.1127937,0.242518 0.085231,0.101956 0.2154017,0.166872 0.3517733,0.175428 0.00859,5.39e-4 0.018438,0.0012 0.021875,0.0015 0.00344,2.84e-4 0.022703,-8.5e-4 0.042812,-0.0025 z m 5.5337086,-1.003431 c 0.03092,-0.0043 0.080389,-0.0171 0.1086592,-0.02823 0.04455,-0.01754 -0.06205,0.04341 1.3600799,-0.777721 0.1658587,-0.09577 0.6116364,-0.353114 0.9906173,-0.571884 0.378981,-0.21877 0.857103,-0.49478 1.062492,-0.613355 0.20539,-0.118576 0.514762,-0.297157 0.687495,-0.396848 0.172733,-0.099691 0.323904,-0.1880663 0.335936,-0.1963888 0.104936,-0.07259 0.176317,-0.180766 0.205432,-0.3113288 0.0058,-0.026055 0.0068,-0.040278 0.0069,-0.097683 5.9e-5,-0.05825 -8.66e-4,-0.071448 -0.007,-0.099216 -0.03393,-0.1546591 -0.130701,-0.2815766 -0.266134,-0.3490378 -0.07379,-0.036757 -0.143488,-0.052899 -0.226708,-0.052509 -0.07682,3.606e-4 -0.141746,0.015013 -0.209374,0.047251 -0.01719,0.00819 -0.327966,0.1862278 -0.69062,0.3956331 -1.5908476,0.9186023 -2.1172536,1.2225443 -2.876529,1.6608893 -0.4442927,0.2565 -0.8190559,0.473881 -0.8328058,0.483069 -0.1811997,0.121084 -0.2613811,0.353381 -0.1946456,0.563921 0.04142,0.130667 0.135871,0.239271 0.2596161,0.298511 0.092349,0.04421 0.1855286,0.05882 0.2865889,0.04493 z M 15.836,8.9973482 c 0.0027,-0.0024 0.140655,-0.08222 0.156874,-0.09075 l 0.007,-0.0037 v 0.04855 0.04855 h -0.08344 c -0.04603,0 -0.08211,-0.0012 -0.08047,-0.0027 z M 2.46e-5,0.15494428 V 1.88e-6 h 0.26770631 c 0.14723851,0 0.26712042,5.091e-4 0.26640432,0.00113 -7.1619e-4,6.222e-4 -0.11661373,0.06759 -0.25755019,0.1488171 -0.14093645,0.081227 -0.26081836,0.1504423 -0.26640422,0.1538111 L 2.49e-5,0.30989008 Z"
     style="fill:url(#linearGradient4620);stroke-width:0.00312499;fill-opacity:1" />
</svg>
