<?xml version="1.0" encoding="UTF-8" standalone="no"?>
<svg
   width="32"
   height="32"
   viewBox="0 0 8.4666665 8.4666669"
   version="1.1"
   id="svg20249"
   inkscape:version="1.2 (dc2aedaf03, 2022-05-15)"
   sodipodi:docname="baseicon-mac.svg"
   xmlns:inkscape="http://www.inkscape.org/namespaces/inkscape"
   xmlns:sodipodi="http://sodipodi.sourceforge.net/DTD/sodipodi-0.dtd"
   xmlns:xlink="http://www.w3.org/1999/xlink"
   xmlns="http://www.w3.org/2000/svg"
   xmlns:svg="http://www.w3.org/2000/svg"
   xmlns:rdf="http://www.w3.org/1999/02/22-rdf-syntax-ns#"
   xmlns:cc="http://creativecommons.org/ns#"
   xmlns:dc="http://purl.org/dc/elements/1.1/">
  <defs
     id="defs20243">
    <inkscape:path-effect
       effect="clone_original"
       linkeditem="#rect824-2-2"
       method="bsplinespiro"
       allow_transforms="false"
       id="path-effect29"
       lpeversion="1" />
    <linearGradient
       inkscape:collect="always"
       id="linearGradient9165">
      <stop
         style="stop-color:#ff641b;stop-opacity:1"
         offset="0"
         id="stop9161" />
      <stop
         style="stop-color:#f3c800;stop-opacity:1"
         offset="1"
         id="stop9163" />
    </linearGradient>
    <clipPath
       clipPathUnits="userSpaceOnUse"
       id="clipPath976">
      <path
         id="path978"
         style="fill:url(#linearGradient980);fill-opacity:1;fill-rule:evenodd;stroke-width:0.999999"
         d="m 16.03125,2.9980724 a 13.000112,13.000112 0 0 0 -0.152345,0.00197 H 9.0000005 C 5.6759725,3.0000378 3,5.676019 3,9.0000379 v 6.9687311 7.031244 c 0,3.324018 2.6759725,6 6.0000005,6 H 23 c 3.324028,0 6.000001,-2.675982 6.000001,-6 V 16.029317 9.0000379 C 29.000001,5.676019 26.324028,3.0000378 23,3.0000378 h -6.867188 a 13.000112,13.000112 0 0 0 -0.101562,-0.00197 z" />
    </clipPath>
    <linearGradient
       inkscape:collect="always"
       xlink:href="#linearGradient9165"
       id="linearGradient980"
       gradientUnits="userSpaceOnUse"
       gradientTransform="translate(0,7.5590552e-5)"
       x1="3"
       y1="29"
       x2="30.5"
       y2="1.5" />
    <clipPath
       clipPathUnits="userSpaceOnUse"
       id="clipPath976-4">
      <path
         id="path978-3"
         style="fill:url(#linearGradient980);fill-opacity:1;fill-rule:evenodd;stroke-width:0.999999"
         d="m 16.03125,2.9980724 a 13.000112,13.000112 0 0 0 -0.152345,0.00197 H 9.0000005 C 5.6759725,3.0000378 3,5.676019 3,9.0000379 v 6.9687311 7.031244 c 0,3.324018 2.6759725,6 6.0000005,6 H 23 c 3.324028,0 6.000001,-2.675982 6.000001,-6 V 16.029317 9.0000379 C 29.000001,5.676019 26.324028,3.0000378 23,3.0000378 h -6.867188 a 13.000112,13.000112 0 0 0 -0.101562,-0.00197 z" />
    </clipPath>
    <inkscape:path-effect
       effect="clone_original"
       linkeditem=""
       method="bsplinespiro"
       allow_transforms="false"
       id="path-effect29-9"
       lpeversion="1"
       is_visible="true"
       attributes=""
       css_properties="" />
  </defs>
  <sodipodi:namedview
     id="base"
     pagecolor="#ffffff"
     bordercolor="#666666"
     borderopacity="1.0"
     inkscape:pageopacity="0.0"
     inkscape:pageshadow="2"
     inkscape:zoom="19.126673"
     inkscape:cx="8.3652813"
     inkscape:cy="28.494239"
     inkscape:document-units="mm"
     inkscape:current-layer="iconlayer"
     showgrid="true"
     units="px"
     inkscape:window-width="2560"
     inkscape:window-height="1369"
     inkscape:window-x="3832"
     inkscape:window-y="710"
     inkscape:window-maximized="1"
     inkscape:document-rotation="0"
     inkscape:pagecheckerboard="0"
     inkscape:showpageshadow="2"
     inkscape:deskcolor="#d1d1d1">
    <inkscape:grid
       type="xygrid"
       id="grid20794"
       empspacing="4"
       enabled="true" />
    <inkscape:grid
       type="xygrid"
       id="grid20796"
       empspacing="1"
       originy="0.13229167"
       originx="0.13229167"
       dotted="true"
       enabled="true" />
  </sodipodi:namedview>
  <metadata
     id="metadata20246">
    <rdf:RDF>
      <cc:Work
         rdf:about="">
        <dc:format>image/svg+xml</dc:format>
        <dc:type
           rdf:resource="http://purl.org/dc/dcmitype/StillImage" />
      </cc:Work>
    </rdf:RDF>
  </metadata>
  <g
     inkscape:label="Base"
     inkscape:groupmode="layer"
     id="layer1"
     transform="translate(0,-288.53332)"
     sodipodi:insensitive="true">
    <path
       id="rect288"
       style="fill:#646464;fill-opacity:1;fill-rule:evenodd;stroke-width:0.999999"
       d="M 16.03125,2.9980469 A 13.000112,13.000112 0 0 0 15.878906,3 H 9 C 5.6759724,3 3,5.6759811 3,9 V 15.96875 23 c 0,3.324019 2.6759724,6 6,6 h 14 c 3.324028,0 6,-2.675981 6,-6 V 16.029297 9 C 29,5.6759811 26.324028,3 23,3 H 16.132812 A 13.000112,13.000112 0 0 0 16.03125,2.99805 Z m -0.01563,1 h 0.02344 c 0.02344,4.049e-4 0.04687,0.00141 0.07031,0.00195 H 16.121094 23 c 2.787331,0 5,2.212678 5,5 V 16.029297 23 c 0,2.787322 -2.212669,5 -5,5 H 9 C 6.2126697,28 4,25.787322 4,23 V 15.96875 9 C 4,6.2126781 6.2126697,4 9,4 h 6.888672 0.0098 c 0.03906,-7.297e-4 0.07812,-0.0016 0.117187,-0.00195 z"
       transform="matrix(0.26458333,0,0,0.26458333,0,288.53332)" />
    <path
       id="rect824-2-2-2"
       style="fill:#646464;fill-opacity:1;stroke:none;stroke-width:0.292793;stroke-linecap:round;stroke-linejoin:round;stroke-miterlimit:4;stroke-dasharray:none;stroke-dashoffset:0;stroke-opacity:1;paint-order:normal"
       d="m 4.4609887,291.93795 c -0.057439,-0.0157 -0.1147587,-0.0256 -0.1718626,-0.0295 l -4.991e-4,-1.4e-4 c -0.3997524,-0.0265 -0.7744139,0.22925 -0.8844453,0.63131 l -0.8780438,3.20902 -0.122781,0.45823 1.8333886,1.3e-4 -0.002,-5.4e-4 1.8510644,5e-5 c 0.8794805,1e-5 1.5873292,-0.70784 1.5873287,-1.58732 l 3.088e-4,-1.31493 -5.725e-4,-0.49503 -1.2463925,-0.33396 z m 1.9654972,0.53736 0.00267,-0.01 -4.992e-4,-1.3e-4 z" />
    <path
       id="path1083"
       style="fill:none;fill-opacity:1;fill-rule:evenodd;stroke-width:0.999999"
       d="M 16.03125,2.9980469 A 13.000112,13.000112 45 0 0 15.878906,3 H 9 C 5.6759724,3 3,5.6759811 3,9 V 15.96875 23 c 0,3.324019 2.6759724,6 6,6 h 14 c 3.324028,0 6,-2.675981 6,-6 V 16.029297 9 C 29,5.6759811 26.324028,3 23,3 H 16.132812 A 13.000112,13.000112 45 0 0 16.03125,2.99805 Z"
       transform="matrix(0.26458333,0,0,0.26458333,0,288.53332)" />
  </g>
  <g
     inkscape:groupmode="layer"
     id="iconlayer"
     inkscape:label="Icon">
    <g
       id="g347"
       transform="matrix(0.81281339,0,0,0.81281339,0.75858552,0.78507767)"
       style="stroke-width:0.976907">
      <path
         id="path819-5-7"
         style="color:#000000;opacity:0.5;fill:#ffffff;stroke-width:0.976907;stroke-linecap:round;stroke-linejoin:round"
         d="m -6.233468,3.091727 c 0.6028586,0.1717293 1.0460737,0.7280978 1.0460737,1.3850568 a 0.125139,0.125139 0 0 1 -0.00152,0.015643 l 3.599e-4,0.895141 A 0.125139,0.125139 45 0 1 -5.3128634,5.512082 0.125139,0.125139 45 0 1 -5.4388747,5.3873685 l 0.00108,-0.8985014 a 0.125139,0.125139 0 0 1 -0.00155,-0.012185 c 0,-0.6580489 -0.529734,-1.1876304 -1.1877829,-1.1876304 -0.6580491,0 -1.1891279,0.5293328 -1.1891279,1.1873817 a 0.125139,0.125139 0 0 1 -0.125079,0.1253783 0.125139,0.125139 0 0 1 -0.1253783,-0.1250789 c 0,-0.793309 0.646378,-1.4396359 1.439687,-1.4396359 0.13635,0 0.2684405,0.018988 0.3935622,0.05463 z"
         transform="matrix(-0.96592583,-0.25881905,-0.25881905,0.96592583,0,0)" />
      <path
         style="fill:none;fill-opacity:1;stroke:#ffffff;stroke-width:0.244498px;stroke-linecap:round;stroke-linejoin:miter;stroke-opacity:1"
         d="M 6.5119971,6.38007 6.2765473,7.25872"
         id="path823-0-3"
         inkscape:connector-curvature="0"
         sodipodi:nodetypes="cc"
         inkscape:export-filename="/home/victor/newcontemporary.png"
         inkscape:export-xdpi="2165.5593"
         inkscape:export-ydpi="2165.5593" />
      <path
         style="opacity:0.5;fill:#ffffff;fill-opacity:1;stroke:#ffffff;stroke-width:0.256009px;stroke-linecap:round;stroke-linejoin:round;stroke-opacity:1"
         d="m 4.3586372,6.3212 -0.27393,1.02227 c 0.20447,0.0548 0.4637,-0.0949 0.5184799,-0.29933 l 0.0548,-0.20445 c 0.0548,-0.20445 -0.0949,-0.46369 -0.29934,-0.51847 z"
         id="path825-5-7"
         inkscape:connector-curvature="0"
         sodipodi:nodetypes="ccccc"
         inkscape:export-filename="/home/victor/newcontemporary.png"
         inkscape:export-xdpi="2165.5593"
         inkscape:export-ydpi="2165.5593" />
      <path
         style="fill:#ffffff;fill-opacity:1;stroke:#ffffff;stroke-width:0.256012px;stroke-linecap:round;stroke-linejoin:round;stroke-opacity:1"
         d="M 5.8920373,6.73207 5.6181171,7.75435 C 5.4136572,7.69955 5.2639872,7.44034 5.3187673,7.23586 l 0.0548,-0.20445 c 0.0548,-0.20444 0.3140299,-0.35413 0.5184899,-0.29934 z"
         id="path825-6-9-5"
         inkscape:connector-curvature="0"
         sodipodi:nodetypes="ccccc"
         inkscape:export-filename="/home/victor/newcontemporary.png"
         inkscape:export-xdpi="2165.5593"
         inkscape:export-ydpi="2165.5593" />
      <path
         style="opacity:0.5;fill:none;fill-opacity:1;stroke:#ffffff;stroke-width:0.244498;stroke-linecap:round;stroke-linejoin:round;stroke-miterlimit:4;stroke-dasharray:none;stroke-opacity:1"
         id="path350"
         sodipodi:type="arc"
         sodipodi:cx="-6.6274247"
         sodipodi:cy="4.4770188"
         sodipodi:rx="1.3139607"
         sodipodi:ry="1.3139607"
         sodipodi:start="3.1415927"
         sodipodi:end="5.7595865"
         transform="matrix(-0.96592583,-0.25881905,-0.25881905,0.96592583,0,0)"
         inkscape:export-filename="/home/victor/newcontemporary.png"
         inkscape:export-xdpi="2165.5593"
         inkscape:export-ydpi="2165.5593"
         sodipodi:arc-type="arc"
         sodipodi:open="true"
         d="m -7.9413854,4.4770188 a 1.3139607,1.3139607 0 0 1 0.9738826,-1.2691885 1.3139607,1.3139607 0 0 1 1.4780014,0.6122082" />
      <path
         style="opacity:1;fill:none;fill-opacity:1;stroke:#ffffff;stroke-width:0.244498;stroke-linecap:round;stroke-linejoin:round;stroke-miterlimit:4;stroke-dasharray:none;stroke-opacity:1"
         id="path352"
         sodipodi:type="arc"
         sodipodi:cx="-6.6274247"
         sodipodi:cy="4.4770188"
         sodipodi:rx="1.3139607"
         sodipodi:ry="1.3139607"
         sodipodi:start="3.1415927"
         sodipodi:end="5.2359878"
         transform="matrix(-0.96592583,-0.25881905,-0.25881905,0.96592583,0,0)"
         inkscape:export-filename="/home/victor/newcontemporary.png"
         inkscape:export-xdpi="2165.5593"
         inkscape:export-ydpi="2165.5593"
         sodipodi:arc-type="arc"
         sodipodi:open="true"
         d="m -7.9413854,4.4770188 a 1.3139607,1.3139607 0 0 1 0.6569804,-1.1379233 1.3139607,1.3139607 0 0 1 1.3139607,0" />
    </g>
  </g>
</svg>
