<?xml version="1.0" encoding="UTF-8" standalone="no"?>
<svg
   width="32"
   height="32"
   viewBox="0 0 8.4666665 8.4666669"
   version="1.1"
   id="svg20249"
   inkscape:version="1.1.2 (b8e25be8, 2022-02-05)"
   sodipodi:docname="baseicon.svg"
   xmlns:inkscape="http://www.inkscape.org/namespaces/inkscape"
   xmlns:sodipodi="http://sodipodi.sourceforge.net/DTD/sodipodi-0.dtd"
   xmlns="http://www.w3.org/2000/svg"
   xmlns:svg="http://www.w3.org/2000/svg"
   xmlns:rdf="http://www.w3.org/1999/02/22-rdf-syntax-ns#"
   xmlns:cc="http://creativecommons.org/ns#"
   xmlns:dc="http://purl.org/dc/elements/1.1/">
  <defs
     id="defs20243" />
  <sodipodi:namedview
     id="base"
     pagecolor="#ffffff"
     bordercolor="#666666"
     borderopacity="1.0"
     inkscape:pageopacity="0.0"
     inkscape:pageshadow="2"
     inkscape:zoom="15.839192"
     inkscape:cx="16.099306"
     inkscape:cy="15.24699"
     inkscape:document-units="mm"
     inkscape:current-layer="iconlayer"
     showgrid="true"
     units="px"
     inkscape:window-width="1312"
     inkscape:window-height="907"
     inkscape:window-x="0"
     inkscape:window-y="25"
     inkscape:window-maximized="0"
     inkscape:document-rotation="0"
     inkscape:pagecheckerboard="0">
    <inkscape:grid
       type="xygrid"
       id="grid20794"
       empspacing="4" />
    <inkscape:grid
       type="xygrid"
       id="grid20796"
       empspacing="1"
       originy="0.13229167"
       originx="0.13229167"
       dotted="true" />
  </sodipodi:namedview>
  <metadata
     id="metadata20246">
    <rdf:RDF>
      <cc:Work
         rdf:about="">
        <dc:format>image/svg+xml</dc:format>
        <dc:type
           rdf:resource="http://purl.org/dc/dcmitype/StillImage" />
      </cc:Work>
    </rdf:RDF>
  </metadata>
  <g
     inkscape:label="Base"
     inkscape:groupmode="layer"
     id="layer1"
     transform="translate(0,-288.53332)"
     sodipodi:insensitive="true">
    <path
       style="fill:#646464;fill-opacity:1;stroke:none;stroke-width:0.360358;stroke-linecap:round;stroke-linejoin:round;stroke-miterlimit:4;stroke-dasharray:none;stroke-dashoffset:0;stroke-opacity:1;paint-order:normal"
       d="m 4.5072672,291.74432 c -0.5663401,-0.15175 -1.1444399,0.18202 -1.29618,0.74836 l -1.05944,3.9538 a 4.2333333,4.2333333 0 0 0 0.98603,0.4092 4.2333333,4.2333333 0 0 0 5.1847901,-2.99343 4.2333333,4.2333333 0 0 0 0.1406401,-1.05798 z"
       id="rect824-2-2"
       inkscape:connector-curvature="0"
       inkscape:export-filename="/home/victor/newcontemporary.png"
       inkscape:export-xdpi="2165.5593"
       inkscape:export-ydpi="2165.5593" />
    <path
       id="path814-0-9"
       style="opacity:1;fill:#646464;fill-opacity:1;stroke:none;stroke-width:1;stroke-linecap:round;stroke-linejoin:round;stroke-miterlimit:4;stroke-dasharray:none;stroke-dashoffset:0;stroke-opacity:1;paint-order:normal"
       d="M 15.402344,0.00976563 A 15.999999,15.999999 0 0 0 0.54492188,11.857422 15.999999,15.999999 0 0 0 11.859375,31.453125 15.999999,15.999999 0 0 0 31.455078,20.140625 15.999999,15.999999 0 0 0 20.142578,0.54296875 15.999999,15.999999 0 0 0 15.402344,0.00976563 Z M 16,1 A 15,15 0 0 1 31,16 15,15 0 0 1 16,31 15,15 0 0 1 1,16 15,15 0 0 1 16,1 Z"
       transform="matrix(0.26458333,0,0,0.26458333,0,288.53332)" />
  </g>
  <g
     inkscape:groupmode="layer"
     id="iconlayer"
     inkscape:label="Icon">
    <path
       style="opacity:1;fill:none;fill-opacity:1;stroke:#ffffff;stroke-width:0.250278;stroke-linecap:round;stroke-linejoin:round;stroke-miterlimit:4;stroke-dasharray:none;stroke-opacity:1"
       id="path819-5"
       sodipodi:type="arc"
       sodipodi:cx="-6.6274247"
       sodipodi:cy="4.4770188"
       sodipodi:rx="1.3139607"
       sodipodi:ry="1.3139607"
       sodipodi:start="3.1415927"
       sodipodi:end="0"
       transform="matrix(-0.96592583,-0.25881905,-0.25881905,0.96592583,0,0)"
       inkscape:export-filename="/home/victor/newcontemporary.png"
       inkscape:export-xdpi="2165.5593"
       inkscape:export-ydpi="2165.5593"
       sodipodi:arc-type="arc"
       sodipodi:open="true"
       d="M -7.9413854,4.4770188 A 1.3139607,1.3139607 0 0 1 -6.6274247,3.1630582 1.3139607,1.3139607 0 0 1 -5.313464,4.4770188" />
    <path
       style="fill:none;stroke:#ffffff;stroke-width:0.250278px;stroke-linecap:round;stroke-linejoin:miter;stroke-opacity:1;fill-opacity:1"
       d="m 3.9735973,5.6999 -0.23544,0.87868"
       id="path821-4"
       inkscape:connector-curvature="0"
       sodipodi:nodetypes="cc"
       inkscape:export-filename="/home/victor/newcontemporary.png"
       inkscape:export-xdpi="2165.5593"
       inkscape:export-ydpi="2165.5593" />
    <path
       style="fill:none;stroke:#ffffff;stroke-width:0.250278px;stroke-linecap:round;stroke-linejoin:miter;stroke-opacity:1;fill-opacity:1"
       d="M 6.5119971,6.38007 6.2765473,7.25872"
       id="path823-0"
       inkscape:connector-curvature="0"
       sodipodi:nodetypes="cc"
       inkscape:export-filename="/home/victor/newcontemporary.png"
       inkscape:export-xdpi="2165.5593"
       inkscape:export-ydpi="2165.5593" />
    <path
       style="fill:#ffffff;fill-opacity:1;stroke:#ffffff;stroke-width:0.262061px;stroke-linecap:round;stroke-linejoin:round;stroke-opacity:1"
       d="m 4.3586372,6.3212 -0.27393,1.02227 c 0.20447,0.0548 0.4637,-0.0949 0.5184799,-0.29933 l 0.0548,-0.20445 c 0.0548,-0.20445 -0.0949,-0.46369 -0.29934,-0.51847 z"
       id="path825-5"
       inkscape:connector-curvature="0"
       sodipodi:nodetypes="ccccc"
       inkscape:export-filename="/home/victor/newcontemporary.png"
       inkscape:export-xdpi="2165.5593"
       inkscape:export-ydpi="2165.5593" />
    <path
       style="fill:#ffffff;fill-opacity:1;stroke:#ffffff;stroke-width:0.262064px;stroke-linecap:round;stroke-linejoin:round;stroke-opacity:1"
       d="M 5.8920373,6.73207 5.6181171,7.75435 C 5.4136572,7.69955 5.2639872,7.44034 5.3187673,7.23586 l 0.0548,-0.20445 c 0.0548,-0.20444 0.3140299,-0.35413 0.5184899,-0.29934 z"
       id="path825-6-9"
       inkscape:connector-curvature="0"
       sodipodi:nodetypes="ccccc"
       inkscape:export-filename="/home/victor/newcontemporary.png"
       inkscape:export-xdpi="2165.5593"
       inkscape:export-ydpi="2165.5593" />
  </g>
</svg>
